<svg width="2321" height="3097" viewBox="0 0 2321 3097" fill="none" xmlns="http://www.w3.org/2000/svg">
<path d="M1517.27 820C1217.41 724.099 932.339 780.041 807.5 820L502 367.102L955.19 599.081L1176.25 0L1374.88 599.081L1817 367.102L1517.27 820Z" fill="#FFE500"/>
<path d="M808.596 2356.25L400.947 2775.79L841.939 1611.15L1091.34 1673.97L944.585 2879.63L808.596 2356.25Z" fill="#24FF00"/>
<path d="M1511.87 2356.25L1919.52 2775.79L1478.53 1611.15L1229.13 1673.97L1375.88 2879.63L1511.87 2356.25Z" fill="#24FF00"/>
<circle cx="1160" cy="1403" r="698" fill="#FF7A00"/>
<circle cx="1154.5" cy="1402.5" r="557.5" fill="#FFB168"/>
<path d="M1248.87 1716H1119.75V1218.29L965.612 1266.1V1161.1L1235.02 1064.6H1248.87V1716Z" fill="black"/>
</svg>
