<svg width="137" height="71" viewBox="0 0 137 71" fill="none" xmlns="http://www.w3.org/2000/svg">
<path d="M78.772 31.9219C78.772 31.0683 79.0528 30.3494 79.6145 29.7653C80.1986 29.1812 80.9624 28.8892 81.9059 28.8892C82.8494 28.8892 83.602 29.1812 84.1636 29.7653C84.7477 30.3494 85.0398 31.0683 85.0398 31.9219C85.0398 32.7756 84.7477 33.4945 84.1636 34.0786C83.602 34.6627 82.8494 34.9547 81.9059 34.9547C80.9624 34.9547 80.1986 34.6627 79.6145 34.0786C79.0528 33.4945 78.772 32.7756 78.772 31.9219ZM84.7702 52.8144C84.5231 52.8594 84.1524 52.9155 83.6582 52.9829C83.1864 53.0728 82.7034 53.1177 82.2092 53.1177C81.715 53.1177 81.2657 53.084 80.8613 53.0166C80.4794 52.9492 80.1536 52.8144 79.8841 52.6123C79.6145 52.4101 79.4011 52.1405 79.2438 51.8035C79.109 51.4441 79.0416 50.9835 79.0416 50.4219V36.707C79.2887 36.6621 79.6482 36.6059 80.1199 36.5385C80.6142 36.4486 81.1084 36.4037 81.6026 36.4037C82.0969 36.4037 82.5349 36.4374 82.9168 36.5048C83.3212 36.5722 83.6582 36.707 83.9278 36.9092C84.1973 37.1114 84.3995 37.3922 84.5343 37.7516C84.6916 38.0886 84.7702 38.5379 84.7702 39.0995V52.8144ZM96.1675 47.2206C96.1675 47.8047 96.3473 48.2203 96.7067 48.4675C97.0886 48.7146 97.6165 48.8381 98.2905 48.8381C98.6275 48.8381 98.9757 48.8157 99.3351 48.7707C99.6946 48.7033 100.009 48.6247 100.279 48.5348C100.481 48.782 100.649 49.0628 100.784 49.3773C100.941 49.6693 101.02 50.0288 101.02 50.4556C101.02 51.3093 100.694 52.0057 100.043 52.5449C99.4137 53.084 98.2905 53.3536 96.673 53.3536C94.6961 53.3536 93.1684 52.9043 92.0901 52.0057C91.0343 51.1071 90.5063 49.6469 90.5063 47.625V33.2025C90.7535 33.1351 91.1017 33.0677 91.551 33.0003C92.0227 32.9104 92.517 32.8655 93.0337 32.8655C94.0221 32.8655 94.7859 33.0452 95.3251 33.4046C95.8867 33.7416 96.1675 34.4717 96.1675 35.595V37.7516H100.582C100.717 37.9987 100.84 38.3132 100.953 38.6952C101.087 39.0546 101.155 39.459 101.155 39.9083C101.155 40.6945 100.975 41.2674 100.616 41.6268C100.279 41.9638 99.8181 42.1323 99.234 42.1323H96.1675V47.2206ZM111.682 47.2206C111.682 47.8047 111.861 48.2203 112.221 48.4675C112.603 48.7146 113.131 48.8381 113.805 48.8381C114.142 48.8381 114.49 48.8157 114.849 48.7707C115.209 48.7033 115.523 48.6247 115.793 48.5348C115.995 48.782 116.163 49.0628 116.298 49.3773C116.456 49.6693 116.534 50.0288 116.534 50.4556C116.534 51.3093 116.208 52.0057 115.557 52.5449C114.928 53.084 113.805 53.3536 112.187 53.3536C110.21 53.3536 108.683 52.9043 107.604 52.0057C106.548 51.1071 106.02 49.6469 106.02 47.625V33.2025C106.268 33.1351 106.616 33.0677 107.065 33.0003C107.537 32.9104 108.031 32.8655 108.548 32.8655C109.536 32.8655 110.3 33.0452 110.839 33.4046C111.401 33.7416 111.682 34.4717 111.682 35.595V37.7516H116.096C116.231 37.9987 116.354 38.3132 116.467 38.6952C116.602 39.0546 116.669 39.459 116.669 39.9083C116.669 40.6945 116.489 41.2674 116.13 41.6268C115.793 41.9638 115.332 42.1323 114.748 42.1323H111.682V47.2206Z" fill="black"/>
<path fill-rule="evenodd" clip-rule="evenodd" d="M71.8145 10.6801C74.7637 10.6801 77.1546 8.28929 77.1546 5.34005C77.1546 2.39082 74.7637 0 71.8145 0C68.8653 0 66.4745 2.39082 66.4745 5.34005C66.4745 8.28929 68.8653 10.6801 71.8145 10.6801ZM42.1435 13.7456C42.1597 13.4931 42.168 13.2385 42.168 12.9819C42.168 6.52405 36.9329 1.28898 30.4751 1.28898C24.0174 1.28898 18.7823 6.52405 18.7823 12.9819C18.7823 15.9712 19.904 18.6985 21.7495 20.7658C22.814 22.3837 23.6699 25.7313 22.7602 30.9204C22.7254 31.0172 22.6912 31.1143 22.6573 31.2117C20.9582 34.9328 20.0806 36.2838 15.7706 38.9108C13.2072 40.0355 11.4167 42.5959 11.4167 45.5746C11.4167 49.5916 14.6731 52.8481 18.6902 52.8481C19.5227 52.8481 20.3224 52.7084 21.0674 52.4507C19.5534 53.7837 18.5981 55.7363 18.5981 57.912C18.5981 61.929 21.8546 65.1855 25.8716 65.1855C27.7664 65.1855 29.492 64.4609 30.7863 63.2739C31.4619 62.765 32.5776 62.1691 33.3293 62.6075C33.3711 62.632 33.4103 62.6528 33.4472 62.6701C37.677 65.4256 42.7278 67.0269 48.1526 67.0269C63.0513 67.0269 75.129 54.9492 75.129 40.0504C75.129 30.5446 70.2123 22.187 62.7832 17.3822C63.7129 16.1604 64.2648 14.6356 64.2648 12.9819C64.2648 8.96481 61.0083 5.70833 56.9913 5.70833C54.5157 5.70833 52.329 6.94503 51.0154 8.83431C51.0122 8.83552 51.0093 8.83698 51.0067 8.83871C50.9981 8.85394 50.9896 8.86913 50.9809 8.88425C50.8552 9.06824 50.7379 9.25829 50.6291 9.45386C48.6864 12.3567 45.8425 12.9201 43.7803 13.3286C43.1556 13.4524 42.6024 13.562 42.168 13.7181L42.1774 13.7379L42.1435 13.7456ZM23.5051 51.0321L23.5032 51.0279L23.4944 51.0358L23.5051 51.0321ZM7.18145 54.4133C7.18145 56.3965 5.57384 58.004 3.59073 58.004C1.60762 58.004 0 56.3965 0 54.4133C0 52.4301 1.60762 50.8226 3.59073 50.8226C5.57384 50.8226 7.18145 52.4301 7.18145 54.4133ZM85.4409 31.9482C85.4409 33.9314 83.8333 35.539 81.8501 35.539C79.867 35.539 78.2594 33.9314 78.2594 31.9482C78.2594 29.9651 79.867 28.3575 81.8501 28.3575C83.8333 28.3575 85.4409 29.9651 85.4409 31.9482ZM128.806 52.2957C133.331 52.2957 137 48.6271 137 44.1015C137 39.5759 133.331 35.9073 128.806 35.9073C124.28 35.9073 120.612 39.5759 120.612 44.1015C120.612 48.6271 124.28 52.2957 128.806 52.2957ZM48.1537 50.3247C45.4932 50.6734 43.5318 48.2684 43.5318 45.5851V38.3779L43.2712 31.6934C43.1659 28.9932 45.0608 26.5029 47.7486 26.7822C48.1874 26.8279 48.6245 26.8925 49.058 26.9763C51.0259 27.3562 52.8721 28.1191 54.4612 29.209C56.0505 30.2989 57.3422 31.6882 58.2416 33.2748C59.1411 34.8613 59.6256 36.605 59.6594 38.3779C59.6931 40.1508 59.2755 41.9076 58.4371 43.52C57.5987 45.1323 56.3608 46.5588 54.814 47.6951C53.2674 48.8313 51.4512 49.6483 49.499 50.0864C49.0545 50.186 48.6055 50.2656 48.1537 50.3247Z" fill="#E3CD00"/>
</svg>
