<svg width="289" height="327" viewBox="0 0 289 327" fill="none" xmlns="http://www.w3.org/2000/svg">
<path fill-rule="evenodd" clip-rule="evenodd" d="M24.9551 50C24.9551 22.3858 47.3408 0 74.9551 0H213.194C240.809 0 263.194 22.3858 263.194 50V94.2191C258.159 92.5149 252.765 91.5909 247.154 91.5909H236.951V81.9024C236.951 54.2882 214.566 31.9024 186.951 31.9024H101.197C73.5827 31.9024 51.1969 54.2882 51.1969 81.9024V91.5909H44.5958C37.6235 91.5909 30.9846 93.018 24.9551 95.596V50Z" fill="#383838"/>
<path fill-rule="evenodd" clip-rule="evenodd" d="M0 101.591C0 96.068 4.47714 91.5908 9.99999 91.5908H278.151C283.674 91.5908 288.151 96.068 288.151 101.591V317C288.151 322.523 283.674 327 278.151 327H10C4.47715 327 0 322.523 0 317V101.591ZM157.44 224.598C157.44 220.747 159.741 217.344 162.82 215.03C170.531 209.236 175.518 200.013 175.518 189.626C175.518 172.086 161.299 157.867 143.759 157.867C126.219 157.867 112 172.086 112 189.626C112 200.013 116.987 209.236 124.698 215.031C127.777 217.345 130.079 220.747 130.079 224.599V235C130.079 240.523 134.556 245 140.079 245H147.44C152.963 245 157.44 240.523 157.44 235V224.598Z" fill="#383838"/>
</svg>
