<svg width="744" height="383" viewBox="0 0 744 383" fill="none" xmlns="http://www.w3.org/2000/svg">
<path d="M427.784 173.357C427.784 168.721 429.309 164.817 432.359 161.645C435.531 158.473 439.679 156.887 444.803 156.887C449.927 156.887 454.014 158.473 457.064 161.645C460.236 164.817 461.822 168.721 461.822 173.357C461.822 177.993 460.236 181.897 457.064 185.069C454.014 188.241 449.927 189.827 444.803 189.827C439.679 189.827 435.531 188.241 432.359 185.069C429.309 181.897 427.784 177.993 427.784 173.357ZM460.358 286.817C459.016 287.061 457.003 287.366 454.319 287.732C451.757 288.22 449.134 288.464 446.45 288.464C443.766 288.464 441.326 288.281 439.13 287.915C437.056 287.549 435.287 286.817 433.823 285.719C432.359 284.621 431.2 283.157 430.346 281.327C429.614 279.375 429.248 276.874 429.248 273.824V199.343C430.59 199.099 432.542 198.794 435.104 198.428C437.788 197.94 440.472 197.696 443.156 197.696C445.84 197.696 448.219 197.879 450.293 198.245C452.489 198.611 454.319 199.343 455.783 200.441C457.247 201.539 458.345 203.064 459.077 205.016C459.931 206.846 460.358 209.286 460.358 212.336V286.817ZM522.253 256.439C522.253 259.611 523.229 261.868 525.181 263.21C527.255 264.552 530.122 265.223 533.782 265.223C535.612 265.223 537.503 265.101 539.455 264.857C541.407 264.491 543.115 264.064 544.579 263.576C545.677 264.918 546.592 266.443 547.324 268.151C548.178 269.737 548.605 271.689 548.605 274.007C548.605 278.643 546.836 282.425 543.298 285.353C539.882 288.281 533.782 289.745 524.998 289.745C514.262 289.745 505.966 287.305 500.11 282.425C494.376 277.545 491.509 269.615 491.509 258.635V180.311C492.851 179.945 494.742 179.579 497.182 179.213C499.744 178.725 502.428 178.481 505.234 178.481C510.602 178.481 514.75 179.457 517.678 181.409C520.728 183.239 522.253 187.204 522.253 193.304V205.016H546.226C546.958 206.358 547.629 208.066 548.239 210.14C548.971 212.092 549.337 214.288 549.337 216.728C549.337 220.998 548.361 224.109 546.409 226.061C544.579 227.891 542.078 228.806 538.906 228.806H522.253V256.439ZM606.505 256.439C606.505 259.611 607.481 261.868 609.433 263.21C611.507 264.552 614.374 265.223 618.034 265.223C619.864 265.223 621.755 265.101 623.707 264.857C625.659 264.491 627.367 264.064 628.831 263.576C629.929 264.918 630.844 266.443 631.576 268.151C632.43 269.737 632.857 271.689 632.857 274.007C632.857 278.643 631.088 282.425 627.55 285.353C624.134 288.281 618.034 289.745 609.25 289.745C598.514 289.745 590.218 287.305 584.362 282.425C578.628 277.545 575.761 269.615 575.761 258.635V180.311C577.103 179.945 578.994 179.579 581.434 179.213C583.996 178.725 586.68 178.481 589.486 178.481C594.854 178.481 599.002 179.457 601.93 181.409C604.98 183.239 606.505 187.204 606.505 193.304V205.016H630.478C631.21 206.358 631.881 208.066 632.491 210.14C633.223 212.092 633.589 214.288 633.589 216.728C633.589 220.998 632.613 224.109 630.661 226.061C628.831 227.891 626.33 228.806 623.158 228.806H606.505V256.439Z" fill="black"/>
<path fill-rule="evenodd" clip-rule="evenodd" d="M390 58C406.016 58 419 45.0163 419 29C419 12.9837 406.016 0 390 0C373.984 0 361 12.9837 361 29C361 45.0163 373.984 58 390 58ZM228.867 74.6479C228.955 73.2766 229 71.8936 229 70.5C229 35.4299 200.57 7 165.5 7C130.43 7 102 35.4299 102 70.5C102 86.7339 108.092 101.545 118.114 112.772C123.895 121.558 128.543 139.738 123.603 167.918C123.414 168.444 123.228 168.971 123.044 169.5C113.817 189.708 109.051 197.045 85.6447 211.311C71.7236 217.419 62 231.324 62 247.5C62 269.315 79.6848 287 101.5 287C106.021 287 110.364 286.241 114.41 284.842C106.188 292.081 101 302.685 101 314.5C101 336.315 118.685 354 140.5 354C150.79 354 160.161 350.065 167.19 343.619C170.859 340.855 176.918 337.619 181 340C181.227 340.133 181.44 340.246 181.64 340.34C204.611 355.304 232.04 364 261.5 364C342.41 364 408 298.41 408 217.5C408 165.877 381.299 120.49 340.954 94.3967C346.003 87.7616 349 79.4808 349 70.5C349 48.6848 331.315 31 309.5 31C296.056 31 284.181 37.7161 277.047 47.9761C277.03 47.9827 277.014 47.9906 277 48C276.953 48.0827 276.907 48.1652 276.86 48.2473C276.177 49.2465 275.54 50.2786 274.949 51.3407C264.399 67.1049 248.955 70.1647 237.756 72.3833C234.363 73.0556 231.359 73.6507 229 74.4985L229.051 74.606L228.867 74.6479ZM127.648 277.138L127.638 277.115L127.59 277.158L127.648 277.138ZM39 295.5C39 306.27 30.2696 315 19.5 315C8.73045 315 0 306.27 0 295.5C0 284.73 8.73045 276 19.5 276C30.2696 276 39 284.73 39 295.5ZM464 173.5C464 184.27 455.27 193 444.5 193C433.73 193 425 184.27 425 173.5C425 162.73 433.73 154 444.5 154C455.27 154 464 162.73 464 173.5ZM699.5 284C724.077 284 744 264.077 744 239.5C744 214.923 724.077 195 699.5 195C674.923 195 655 214.923 655 239.5C655 264.077 674.923 284 699.5 284ZM261.506 273.296C247.058 275.19 236.406 262.129 236.406 247.557V208.417L234.991 172.116C234.419 157.452 244.71 143.928 259.306 145.445C261.689 145.693 264.063 146.044 266.417 146.499C277.104 148.562 287.13 152.705 295.76 158.624C304.391 164.543 311.406 172.088 316.29 180.704C321.175 189.32 323.806 198.789 323.99 208.417C324.173 218.045 321.905 227.586 317.352 236.342C312.799 245.098 306.076 252.845 297.676 259.016C289.277 265.186 279.414 269.623 268.812 272.002C266.398 272.543 263.96 272.975 261.506 273.296Z" fill="#FF669D"/>
</svg>
